<svg width="32" height="33" viewBox="0 0 32 33" fill="none" xmlns="http://www.w3.org/2000/svg">
<g clip-path="url(#clip0_418_460)">
<path d="M20.0881 32.1875H10.1283C9.08238 32.1875 8.23438 31.3397 8.23438 30.2937V12.5692C8.23438 11.5233 9.08225 10.6753 10.1283 10.6753H20.088C21.1339 10.6753 21.9819 11.5232 21.9819 12.5692V30.2937C21.9819 31.3397 21.134 32.1875 20.0881 32.1875Z" fill="#9BE5F9"/>
<path d="M17.4657 2.19897H12.751C12.2559 2.19897 11.8545 2.60035 11.8545 3.09547V5.12122C11.8545 5.61635 12.2559 6.01772 12.751 6.01772H17.4657C17.9609 6.01772 18.3622 5.61635 18.3622 5.12122V3.09547C18.3622 2.60035 17.9609 2.19897 17.4657 2.19897Z" fill="#EDF4FC"/>
<path d="M18.5445 10.6752V9.71274C18.5445 9.18974 18.1205 8.76587 17.5976 8.76587H12.6178C12.0948 8.76587 11.6709 9.18987 11.6709 9.71274V10.6752H18.5445Z" fill="#70D6F9"/>
<path d="M23.8647 5.7712L23.6259 4.9752C23.3448 4.03795 22.4984 3.4082 21.5199 3.4082H18.3623V4.68108H21.5199C21.9319 4.68108 22.2883 4.9462 22.4067 5.34095L22.6454 6.13695C22.7281 6.41258 22.9811 6.5907 23.2548 6.5907C23.3153 6.5907 23.3771 6.58195 23.4379 6.5637C23.7747 6.4627 23.9658 6.10795 23.8647 5.7712Z" fill="#C7D7E5"/>
<path d="M14.0693 6.01782H16.1462V8.76607H14.0693V6.01782Z" fill="#C7D7E5"/>
<path d="M17.251 2.199V1.87637C17.251 1.28875 16.7746 0.8125 16.1871 0.8125H14.0287C13.4411 0.8125 12.9648 1.28887 12.9648 1.87637V2.199H17.251Z" fill="#C7D7E5"/>
<path d="M11.2409 27.6542H18.9755C19.5109 27.6542 19.9449 27.2202 19.9449 26.6849V16.1781C19.9449 15.6427 19.5109 15.2087 18.9755 15.2087H11.2409C10.7055 15.2087 10.2715 15.6427 10.2715 16.1781V26.6849C10.2715 27.2201 10.7055 27.6542 11.2409 27.6542Z" fill="#EDF4FC"/>
<path d="M17.8238 20.6272H16.2948C16.1191 20.6272 15.9766 20.4847 15.9766 20.3089V18.7799C15.9766 18.6042 15.8341 18.4617 15.6583 18.4617H14.5578C14.3821 18.4617 14.2396 18.6042 14.2396 18.7799V20.3089C14.2396 20.4847 14.0971 20.6272 13.9213 20.6272H12.3925C12.2167 20.6272 12.0742 20.7697 12.0742 20.9454V22.0459C12.0742 22.2217 12.2167 22.3642 12.3925 22.3642H13.9215C14.0972 22.3642 14.2397 22.5067 14.2397 22.6824V24.2114C14.2397 24.3872 14.3822 24.5297 14.558 24.5297H15.6585C15.8342 24.5297 15.9767 24.3872 15.9767 24.2114V22.6824C15.9767 22.5067 16.1192 22.3642 16.295 22.3642H17.824C17.9997 22.3642 18.1422 22.2217 18.1422 22.0459V20.9454C18.1421 20.7695 17.9996 20.6272 17.8238 20.6272Z" fill="#6CADEF"/>
<path d="M18.9755 15.2087H11.2409C10.7055 15.2087 10.2715 15.6427 10.2715 16.1781V16.9376H19.945V16.1781C19.9449 15.6427 19.5109 15.2087 18.9755 15.2087Z" fill="#FC657E"/>
<path d="M20.088 32.4999H10.1281C8.91163 32.4999 7.92188 31.5102 7.92188 30.2935V12.569C7.92188 11.3525 8.91163 10.3628 10.1281 10.3628H20.088C21.3045 10.3628 22.2943 11.3525 22.2943 12.569V30.2935C22.2944 31.5102 21.3046 32.4999 20.088 32.4999ZM10.1281 10.9877C9.25613 10.9877 8.54688 11.697 8.54688 12.5689V30.2934C8.54688 31.1654 9.25625 31.8748 10.1281 31.8748H20.088C20.96 31.8748 21.6693 31.1654 21.6693 30.2934V12.569C21.6693 11.697 20.9599 10.9878 20.088 10.9878L10.1281 10.9877Z" fill="black"/>
<path d="M17.4657 6.33022H12.751C12.0844 6.33022 11.542 5.78785 11.542 5.12122V3.09547C11.542 2.42885 12.0844 1.88647 12.751 1.88647H17.4657C18.1324 1.88647 18.6747 2.42885 18.6747 3.09547V5.12122C18.6747 5.78785 18.1324 6.33022 17.4657 6.33022ZM12.751 2.51147C12.429 2.51147 12.167 2.77347 12.167 3.09547V5.12122C12.167 5.44322 12.429 5.70522 12.751 5.70522H17.4657C17.7877 5.70522 18.0497 5.44322 18.0497 5.12122V3.09547C18.0497 2.77347 17.7877 2.51147 17.4657 2.51147H12.751Z" fill="black"/>
<path d="M18.5446 10.9877H11.6709C11.4983 10.9877 11.3584 10.8479 11.3584 10.6752V9.71274C11.3584 9.01824 11.9235 8.45337 12.6179 8.45337H17.5978C18.2923 8.45337 18.8571 9.01837 18.8571 9.71274V10.6752C18.8571 10.8479 18.7173 10.9877 18.5446 10.9877ZM11.9834 10.3627H18.2321V9.71274C18.2321 9.36299 17.9476 9.07837 17.5978 9.07837H12.6179C12.268 9.07837 11.9834 9.36299 11.9834 9.71274V10.3627Z" fill="black"/>
<path d="M23.2548 6.9032C22.8393 6.9032 22.4657 6.62495 22.3462 6.2267L22.1073 5.43083C22.0288 5.16933 21.7928 4.99358 21.5199 4.99358H18.3623C18.1897 4.99358 18.0498 4.8537 18.0498 4.68108V3.4082C18.0498 3.23558 18.1897 3.0957 18.3623 3.0957H21.5199C22.6374 3.0957 23.6042 3.81495 23.9252 4.88533L24.1639 5.6812C24.2368 5.92395 24.2108 6.1807 24.0906 6.40383C23.9704 6.62708 23.7704 6.79008 23.5276 6.86283C23.4387 6.88958 23.3469 6.9032 23.2548 6.9032ZM18.6749 4.36858H21.5201C22.0711 4.36858 22.5478 4.7232 22.7061 5.2512L22.9449 6.04708C22.9946 6.2132 23.1777 6.31508 23.3483 6.2642C23.4312 6.23933 23.4994 6.1837 23.5404 6.10758C23.5814 6.03145 23.5903 5.94383 23.5654 5.86095L23.3267 5.06495C23.0854 4.26095 22.3596 3.7207 21.5201 3.7207H18.6749V4.36858Z" fill="black"/>
<path d="M16.1462 9.07845H14.0693C13.8967 9.07845 13.7568 8.93857 13.7568 8.76595V6.01782C13.7568 5.8452 13.8967 5.70532 14.0693 5.70532H16.1462C16.3188 5.70532 16.4587 5.8452 16.4587 6.01782V8.76607C16.4587 8.93857 16.3188 9.07845 16.1462 9.07845ZM14.3818 8.45345H15.8337V6.33032H14.3818V8.45345Z" fill="black"/>
<path d="M17.2511 2.5115H12.9648C12.7922 2.5115 12.6523 2.37162 12.6523 2.199V1.87637C12.6523 1.11737 13.2697 0.5 14.0287 0.5H16.1872C16.9462 0.5 17.5637 1.11737 17.5637 1.87637V2.199C17.5636 2.37162 17.4237 2.5115 17.2511 2.5115ZM13.2773 1.8865H16.9386V1.87637C16.9386 1.46212 16.6015 1.125 16.1871 1.125H14.0286C13.6143 1.125 13.2772 1.46212 13.2772 1.87637L13.2773 1.8865Z" fill="black"/>
<path d="M18.9755 27.9667H11.2409C10.5341 27.9667 9.95898 27.3916 9.95898 26.6849V16.1781C9.95898 15.4712 10.5341 14.8962 11.2409 14.8962H18.9755C19.6824 14.8962 20.2575 15.4714 20.2575 16.1781V26.6849C20.2575 27.3917 19.6824 27.9667 18.9755 27.9667ZM11.2409 15.5211C10.8787 15.5211 10.584 15.8157 10.584 16.178V26.6847C10.584 27.047 10.8786 27.3416 11.2409 27.3416H18.9755C19.3377 27.3416 19.6325 27.047 19.6325 26.6847V16.178C19.6325 15.8157 19.3379 15.5211 18.9755 15.5211H11.2409Z" fill="black"/>
<path d="M15.6583 24.842H14.5577C14.21 24.842 13.927 24.559 13.927 24.2113V22.6824L12.3923 22.6767C12.0446 22.6767 11.7617 22.3937 11.7617 22.0459V20.9454C11.7617 20.5977 12.0446 20.3147 12.3923 20.3147H13.9213L13.927 18.78C13.927 18.4323 14.21 18.1494 14.5577 18.1494H15.6583C16.0061 18.1494 16.2891 18.4323 16.2891 18.78V20.309L17.8237 20.3147C18.1715 20.3147 18.4545 20.5977 18.4545 20.9454V22.0459C18.4545 22.3937 18.1715 22.6767 17.8237 22.6767H16.2948L16.2891 24.2113C16.2891 24.559 16.0061 24.842 15.6583 24.842ZM12.3923 20.9397L12.3867 22.0459L13.9213 22.0517C14.2691 22.0517 14.552 22.3347 14.552 22.6824V24.2113L15.6583 24.217L15.6641 22.6824C15.6641 22.3347 15.9471 22.0517 16.2948 22.0517H17.8237L17.8295 20.9454L17.8237 20.9397H16.2948C15.9471 20.9397 15.6641 20.6568 15.6641 20.309V18.78L14.5577 18.7744L14.552 20.309C14.552 20.6568 14.2691 20.9397 13.9213 20.9397H12.3923Z" fill="black"/>
<path d="M19.945 17.2501H10.2715C10.0989 17.2501 9.95898 17.1102 9.95898 16.9376V16.1781C9.95898 15.4712 10.5341 14.8962 11.2409 14.8962H18.9755C19.6824 14.8962 20.2575 15.4714 20.2575 16.1781V16.9376C20.2575 17.1102 20.1176 17.2501 19.945 17.2501ZM10.584 16.6251H19.6325V16.1781C19.6325 15.8159 19.3379 15.5212 18.9755 15.5212H11.2409C10.8787 15.5212 10.584 15.8159 10.584 16.1781V16.6251Z" fill="black"/>
</g>
<defs>
<clipPath id="clip0_418_460">
<rect width="32" height="32" fill="white" transform="translate(0 0.5)"/>
</clipPath>
</defs>
</svg>
