<svg width="32" height="33" viewBox="0 0 32 33" fill="none" xmlns="http://www.w3.org/2000/svg">
<g clip-path="url(#clip0_418_539)">
<path d="M10.8404 11.5359H4.94105C4.20724 11.5359 3.6123 12.1308 3.6123 12.8646V30.7028C3.6123 31.4366 4.20718 32.0315 4.94105 32.0315H10.8404C11.5742 32.0315 12.1692 31.4366 12.1692 30.7028V12.8646C12.1691 12.1308 11.5742 11.5359 10.8404 11.5359Z" fill="#78BAF6"/>
<path d="M10.8401 11.5359H9.24414C9.97795 11.5359 10.5729 12.1308 10.5729 12.8646V30.7028C10.5729 31.4366 9.97802 32.0315 9.24414 32.0315H10.8401C11.574 32.0315 12.1689 31.4366 12.1689 30.7028V12.8646C12.1688 12.1308 11.574 11.5359 10.8401 11.5359Z" fill="#1885DA"/>
<path d="M6.60894 5.38306H9.17182C9.45795 5.38306 9.68988 5.61499 9.68988 5.90112V9.99106H6.09082V5.90118C6.09082 5.61506 6.32276 5.38306 6.60894 5.38306Z" fill="#D8E6F0"/>
<path d="M9.17194 5.38306H8.10156C8.38769 5.38306 8.61963 5.61499 8.61963 5.90112V9.99106H9.69V5.90118C9.69 5.61506 9.45806 5.38306 9.17194 5.38306Z" fill="#AAC0D1"/>
<path d="M5.45157 9.99121H10.33C10.5034 9.99121 10.6439 10.1317 10.6439 10.3051V11.5359H5.1377V10.3051C5.1377 10.1317 5.27826 9.99121 5.45157 9.99121Z" fill="#AAC0D1"/>
<path d="M10.3295 9.99121H8.85254C9.02591 9.99121 9.16641 10.1317 9.16641 10.3051V11.5359H10.6434V10.3051C10.6434 10.1317 10.5029 9.99121 10.3295 9.99121Z" fill="#8DA5B5"/>
<path d="M12.1691 16.5476H3.6123V22.0209H12.1691V16.5476Z" fill="#D8E6F0"/>
<path d="M12.1692 16.5476H10.5732V22.0209H12.1692V16.5476Z" fill="#AAC0D1"/>
<path d="M27.1236 11.2768V30.3122C27.1236 31.2617 26.3539 32.0314 25.4044 32.0314H15.5952C14.6457 32.0314 13.876 31.2617 13.876 30.3122V11.2768C13.876 9.82207 15.0552 8.64282 16.5099 8.64282H24.4896C25.9444 8.64276 27.1236 9.82201 27.1236 11.2768Z" fill="#FEE9A1"/>
<path d="M24.4893 8.64258H22.8701C24.3248 8.64258 25.5041 9.82183 25.5041 11.2765V30.312C25.5041 31.2614 24.7344 32.0311 23.7849 32.0311H25.4041C26.3536 32.0311 27.1232 31.2615 27.1232 30.312V11.2766C27.1232 9.82183 25.944 8.64258 24.4893 8.64258Z" fill="#FDCA67"/>
<path d="M23.9226 6.97977V8.64265H17.0771V6.97977C17.0771 6.78046 17.2387 6.6189 17.438 6.6189H23.5616C23.761 6.6189 23.9226 6.78046 23.9226 6.97977Z" fill="#D8E6F0"/>
<path d="M23.5615 6.6189H22.2646C22.464 6.6189 22.6255 6.78046 22.6255 6.97977V8.64265H23.9224V6.97977C23.9225 6.78046 23.7608 6.6189 23.5615 6.6189Z" fill="#AAC0D1"/>
<path d="M22.1568 3.41357H18.8428V6.61895H22.1568V3.41357Z" fill="#AAC0D1"/>
<path d="M22.8107 0.96875H17.2401C17.1501 0.96875 17.0771 1.04175 17.0771 1.13175V3.25056C17.0771 3.34056 17.1501 3.41356 17.2401 3.41356H28.1436C28.3938 3.41356 28.4825 3.08231 28.2658 2.95731L26.5586 1.97238C25.419 1.31488 24.1265 0.96875 22.8107 0.96875Z" fill="#D8E6F0"/>
<path d="M20.4995 25.1722C22.2473 25.1722 23.6642 23.7553 23.6642 22.0076V18.6663C23.6642 16.9185 22.2473 15.5017 20.4996 15.5017C18.7518 15.5017 17.335 16.9186 17.335 18.6663V22.0076C17.3349 23.7553 18.7518 25.1722 20.4995 25.1722Z" fill="#A49CF5"/>
<path d="M9.2517 23.2295H17.6821C19.238 23.2295 20.4993 24.4907 20.4993 26.0466V30.6946C20.4993 31.4329 19.9008 32.0313 19.1625 32.0313H7.77132C7.03301 32.0313 6.43457 31.4328 6.43457 30.6946V26.0466C6.43451 24.4907 7.69582 23.2295 9.2517 23.2295Z" fill="#D8E6F0"/>
<path d="M17.6825 23.2295H16.1924C17.7483 23.2295 19.0095 24.4907 19.0095 26.0466V30.6946C19.0095 31.4329 18.411 32.0313 17.6728 32.0313H19.1629C19.9012 32.0313 20.4996 31.4328 20.4996 30.6946V26.0466C20.4996 24.4907 19.2384 23.2295 17.6825 23.2295Z" fill="#AAC0D1"/>
<path d="M17.6821 23.2295H9.2517C7.69582 23.2295 6.43457 24.4907 6.43457 26.0466V26.7556H20.4993V26.0466C20.4993 24.4907 19.238 23.2295 17.6821 23.2295Z" fill="#FF7870"/>
<path d="M17.6825 23.2295H16.1924C17.7483 23.2295 19.0095 24.4907 19.0095 26.0466V26.7556H20.4996V26.0466C20.4996 25.6091 20.3999 25.1947 20.2218 24.8252C19.7669 23.8811 18.8008 23.2295 17.6825 23.2295Z" fill="#D7352E"/>
<path d="M7.89063 6.68677C7.63175 6.68677 7.42188 6.89658 7.42188 7.15552V7.19621C7.42188 7.45514 7.63175 7.66496 7.89063 7.66496C8.1495 7.66496 8.35937 7.45514 8.35937 7.19621V7.15552C8.35937 6.89664 8.1495 6.68677 7.89063 6.68677Z" fill="black"/>
<path d="M28.5 2.55125L26.7928 1.56631C25.5836 0.868688 24.2066 0.5 22.8106 0.5H17.2401C16.8917 0.5 16.6084 0.783375 16.6084 1.13169V3.2505C16.6084 3.59888 16.8917 3.88225 17.2401 3.88225H18.374V6.15013H17.438C16.9805 6.15013 16.6084 6.52231 16.6084 6.97975V8.17381H16.51C14.7991 8.17381 13.4072 9.56569 13.4072 11.2766V21.4573C13.4072 21.7162 13.6171 21.926 13.876 21.926C14.1349 21.926 14.3447 21.7162 14.3447 21.4573V11.2767C14.3447 10.0828 15.316 9.11144 16.51 9.11144H17.0771H23.9225H24.4897C25.6836 9.11144 26.6549 10.0828 26.6549 11.2767V30.3121C26.6549 31.0016 26.094 31.5625 25.4045 31.5625H21.7508C21.4919 31.5625 21.282 31.7723 21.282 32.0312C21.282 32.2902 21.4919 32.5 21.7508 32.5H25.4045C26.6109 32.5 27.5924 31.5185 27.5924 30.3121V11.2767C27.5924 9.56581 26.2005 8.17394 24.4897 8.17394H24.3913V6.97988C24.3913 6.52244 24.0191 6.15025 23.5617 6.15025H22.6256V3.88231H28.1436C28.471 3.88231 28.7479 3.66988 28.8325 3.35363C28.9172 3.03737 28.7837 2.71494 28.5 2.55125ZM23.4538 8.17394H17.5459V7.08769H18.8428H22.1569H23.4538V8.17394ZM21.6881 6.15019H19.3115V3.88231H21.6881V6.15019ZM22.1569 2.94481H18.8428H17.5459V1.4375H22.8106C24.0424 1.4375 25.2574 1.76288 26.3242 2.37838L27.3061 2.94481H22.1569Z" fill="black"/>
<path d="M21.8695 24.3301C21.6466 24.4618 21.5728 24.7493 21.7045 24.9721C21.792 25.1201 21.9481 25.2024 22.1085 25.2024C22.1895 25.2024 22.2717 25.1813 22.3466 25.1371C23.4485 24.4855 24.133 23.2864 24.133 22.0076V18.6664C24.133 16.6629 22.5031 15.033 20.4996 15.033C18.4961 15.033 16.8662 16.6629 16.8662 18.6664V21.4573C16.8662 21.7163 17.0761 21.9261 17.335 21.9261C17.5938 21.9261 17.8037 21.7163 17.8037 21.4573V18.6664C17.8037 17.1799 19.0131 15.9705 20.4996 15.9705C21.9861 15.9705 23.1955 17.1799 23.1955 18.6664V22.0076C23.1955 22.9566 22.6874 23.8465 21.8695 24.3301Z" fill="black"/>
<path d="M17.6822 22.7607H12.6377V22.0239C12.6377 22.0229 12.6379 22.0219 12.6379 22.0209V16.5476C12.6379 16.5466 12.6377 16.5456 12.6377 16.5446V12.8644C12.6377 11.9659 11.975 11.2192 11.1126 11.0876V10.3049C11.1126 9.87337 10.7616 9.52231 10.33 9.52231H10.1591V5.90112C10.1591 5.35699 9.71637 4.91431 9.17218 4.91431H6.6093C6.06518 4.91431 5.62249 5.35699 5.62249 5.90112V9.52224H5.45155C5.01999 9.52224 4.66893 9.87331 4.66893 10.3049V11.0882C3.8993 11.2072 3.2728 11.8223 3.16112 12.6118C3.12487 12.8682 3.30324 13.1053 3.55962 13.1416C3.81612 13.1784 4.05312 12.9995 4.08943 12.7432C4.14899 12.322 4.51505 12.0044 4.94093 12.0044H5.13655C5.13699 12.0044 5.13737 12.0045 5.13774 12.0045H10.6439C10.6444 12.0045 10.6447 12.0044 10.6451 12.0044H10.8403C11.3145 12.0044 11.7003 12.3902 11.7003 12.8644V16.0789H4.08105V14.4478C4.08105 14.1889 3.87118 13.9791 3.6123 13.9791C3.35343 13.9791 3.14355 14.1889 3.14355 14.4478V16.5476V22.0209V30.7026C3.14355 31.6937 3.94987 32.5001 4.94105 32.5001H5.12112C5.37999 32.5001 5.58987 32.2902 5.58987 32.0313C5.58987 31.7724 5.37999 31.5626 5.12112 31.5626H4.94105C4.46687 31.5626 4.08105 31.1767 4.08105 30.7026V22.4896H11.7002V22.7607H9.25174C7.43987 22.7607 5.96587 24.2347 5.96587 26.0466V26.7556V30.6945C5.96587 31.6901 6.7758 32.5001 7.77137 32.5001H19.1626C20.1581 32.5001 20.9681 31.6901 20.9681 30.6945V26.7556V26.0466C20.9681 24.2347 19.4941 22.7607 17.6822 22.7607ZM6.55993 5.90112C6.55993 5.87387 6.58205 5.85181 6.60924 5.85181H9.17212C9.19937 5.85181 9.22149 5.87393 9.22149 5.90112V9.52224H6.55993V5.90112ZM6.09118 10.4597H9.69024H10.1751V11.0669H5.60637V10.4597H6.09118ZM4.08105 21.5521V17.0164H11.7002V21.5521H4.08105ZM19.1626 31.5626H7.77143C7.2928 31.5626 6.90343 31.1732 6.90343 30.6945V27.2243H20.0307V30.6945C20.0306 31.1732 19.6412 31.5626 19.1626 31.5626ZM20.0306 26.2868H6.90343V26.0466C6.90343 24.7516 7.95693 23.6982 9.2518 23.6982H17.6822C18.9772 23.6982 20.0306 24.7516 20.0306 26.0466V26.2868Z" fill="black"/>
</g>
<defs>
<clipPath id="clip0_418_539">
<rect width="32" height="32" fill="white" transform="translate(0 0.5)"/>
</clipPath>
</defs>
</svg>
