<svg width="32" height="33" viewBox="0 0 32 33" fill="none" xmlns="http://www.w3.org/2000/svg">
<g clip-path="url(#clip0_418_434)">
<path d="M26.6514 8.80465L23.6953 5.84854L25.7136 4.3828C25.9844 4.18616 26.358 4.2156 26.5945 4.45224L28.0477 5.90536C28.2843 6.142 28.3137 6.51553 28.1171 6.7863L26.6514 8.80465Z" fill="#BAC5E2"/>
<path d="M23.4705 4.98884C22.74 4.25828 21.5556 4.25828 20.8251 4.98884L13.8867 11.9272H27.2584L27.5109 11.6747C28.2415 10.9442 28.2415 9.75977 27.5109 9.02928L23.4705 4.98884Z" fill="#E9EFFF"/>
<path d="M13.8861 11.9272L8.72559 17.0876L15.4115 23.7735L27.2578 11.9272H13.8861Z" fill="#42C3FC"/>
<path d="M23.4705 4.98884C22.74 4.25828 21.5556 4.25828 20.8251 4.98884L13.8867 11.9272H16.3438L22.0536 6.21743C22.7842 5.48687 23.9686 5.48687 24.6991 6.21743L23.4705 4.98884Z" fill="#D3DCFB"/>
<path d="M9.95418 18.3162L16.3432 11.9272H13.8861L8.72559 17.0876L9.95418 18.3162Z" fill="#1AA9E8"/>
<path d="M3.9248 25.2144L9.76941 19.3697L13.1251 22.7254L7.28049 28.57L3.9248 25.2144Z" fill="#E9EFFF"/>
<path d="M9.77325 19.3706L3.92773 25.2161L4.71442 26.0028L7.77722 22.94C8.11606 22.6012 8.66542 22.6012 9.00426 22.94L10.9602 24.896L13.1294 22.7268L9.77325 19.3706Z" fill="#D3DCFB"/>
<path d="M9.05468 29.6176L2.88232 23.4453C2.45173 23.0147 1.75361 23.0147 1.32301 23.4453L0.790721 23.9776C0.360124 24.4082 0.360124 25.1063 0.790721 25.5369L6.96308 31.7092C7.39367 32.1398 8.09179 32.1398 8.52239 31.7092L9.05468 31.1769C9.48521 30.7463 9.48521 30.0482 9.05468 29.6176Z" fill="#BAC5E2"/>
<path d="M2.31443 25.0977L2.44294 24.9692C2.98505 24.4271 3.86393 24.4271 4.40597 24.9692L2.87904 23.4423C2.45013 23.0134 1.7547 23.0134 1.32579 23.4423L0.787502 23.9806C0.358593 24.4095 0.358593 25.1049 0.787502 25.5338L2.31443 27.0608C1.77233 26.5187 1.77233 25.6398 2.31443 25.0977Z" fill="#A7B4D1"/>
<path d="M17.3328 24.6166L7.88331 15.1671C7.38377 14.6676 6.57377 14.6676 6.07423 15.1671L5.45669 15.7847C4.95715 16.2842 4.95715 17.0942 5.45669 17.5938L14.9062 27.0432C15.4057 27.5428 16.2157 27.5428 16.7153 27.0432L17.3328 26.4257C17.8324 25.9262 17.8324 25.1162 17.3328 24.6166Z" fill="#BAC5E2"/>
<path d="M7.0121 16.8724L7.16123 16.7233C7.79009 16.0944 8.80967 16.0944 9.4386 16.7232L7.87898 15.1635C7.38131 14.6659 6.5745 14.6659 6.0769 15.1635L5.45235 15.7881C4.95469 16.2857 4.95469 17.0926 5.45235 17.5902L7.0121 19.1499C6.38317 18.521 6.38317 17.5013 7.0121 16.8724Z" fill="#A7B4D1"/>
<path d="M31.8626 0.637308C31.6796 0.454231 31.3827 0.454231 31.1997 0.637308L27.3212 4.5158L26.9261 4.1207C26.524 3.71861 25.8983 3.66923 25.4382 4.00351L24.1117 4.96683L23.8023 4.65737C22.8901 3.74518 21.406 3.74518 20.4938 4.65737L17.8389 7.31227C17.6558 7.49534 17.6558 7.79218 17.8389 7.97519C18.022 8.15827 18.3188 8.15827 18.5019 7.97519L21.1567 5.3203C21.7033 4.77376 22.5927 4.77369 23.1393 5.3203L27.1797 9.36068C27.7263 9.90728 27.7263 10.7966 27.1797 11.3432L27.0645 11.4584H24.3919C24.133 11.4584 23.9231 11.6683 23.9231 11.9272C23.9231 12.1861 24.133 12.396 24.3919 12.396H26.1269L21.4833 17.0396L20.3949 15.9511C20.2118 15.7681 19.915 15.7681 19.7319 15.9511C19.5489 16.1342 19.5489 16.431 19.7319 16.6141L20.8204 17.7025L19.5904 18.9325L18.502 17.844C18.3189 17.6609 18.0221 17.6609 17.8391 17.844C17.656 18.0271 17.656 18.3239 17.8391 18.507L18.9275 19.5954L17.6975 20.8254L16.6091 19.7369C16.426 19.5538 16.1292 19.5538 15.9462 19.7369C15.7631 19.92 15.7631 20.2168 15.9462 20.3999L17.0346 21.4883L15.9512 22.5717L9.92831 16.5488L14.0813 12.3959H22.5017C22.7606 12.3959 22.9705 12.186 22.9705 11.9271C22.9705 11.6682 22.7606 11.4583 22.5017 11.4583H15.0187L17.33 9.14697C17.5131 8.9639 17.5131 8.66706 17.33 8.48405C17.1469 8.30097 16.8501 8.30097 16.6671 8.48405L9.26525 15.8859L8.21492 14.8355C7.53337 14.1541 6.42441 14.1541 5.74285 14.8355L5.12531 15.4531C4.79516 15.7832 4.61333 16.2222 4.61333 16.6891C4.61333 17.156 4.79516 17.595 5.12531 17.9252L9.51859 22.3184L5.96875 25.8683L4.95361 24.8531L7.59756 22.2091C7.78064 22.026 7.78064 21.7292 7.59756 21.5462C7.41448 21.3631 7.11765 21.3631 6.93463 21.5462L4.29068 24.1902L3.21403 23.1136C2.60136 22.5009 1.60447 22.5009 0.991796 23.1136L0.459505 23.6459C-0.153168 24.2585 -0.153168 25.2554 0.459505 25.8681L6.63186 32.0405C6.9382 32.3468 7.3406 32.5 7.74301 32.5C8.14542 32.5 8.54776 32.3468 8.8541 32.0404L9.38639 31.5082C9.99906 30.8955 9.99906 29.8986 9.38639 29.2859L8.30974 28.2093L11.8596 24.6594L14.5747 27.3746C14.9049 27.7047 15.3439 27.8866 15.8108 27.8866C16.2777 27.8866 16.7167 27.7047 17.0468 27.3746L17.6643 26.757C18.3458 26.0755 18.3458 24.9665 17.6643 24.285L16.614 23.2346L27.8426 12.006C28.2845 11.5642 28.5278 10.9767 28.5278 10.3518C28.5278 9.72696 28.2845 9.13947 27.8426 8.69762L27.5332 8.38816L28.4965 7.06168C28.8307 6.60159 28.7813 5.97579 28.3793 5.57376L27.9842 5.17866L31.8627 1.30017C32.0458 1.11722 32.0458 0.820322 31.8626 0.637308ZM8.72346 30.8452L8.19117 31.3775C7.94409 31.6246 7.542 31.6246 7.29485 31.3775L1.12249 25.2052C0.87535 24.958 0.87535 24.556 1.12249 24.3088L1.65479 23.7766C1.77836 23.653 1.94062 23.5912 2.10295 23.5912C2.26521 23.5912 2.42753 23.653 2.55111 23.7766L8.72346 29.9489C8.97054 30.1961 8.97054 30.5981 8.72346 30.8452ZM7.64682 27.5463L6.63167 26.5312L10.1815 22.9814L11.1967 23.9965L7.64682 27.5463ZM17.0014 26.0942L16.3839 26.7117C16.2308 26.8648 16.0273 26.9491 15.8108 26.9491C15.5944 26.9491 15.3909 26.8648 15.2378 26.7117L5.78823 17.2622C5.63516 17.1091 5.55084 16.9056 5.55084 16.6891C5.55084 16.4727 5.63516 16.2692 5.78823 16.1161L6.40578 15.4985C6.56379 15.3405 6.77131 15.2616 6.97883 15.2616C7.18634 15.2616 7.39392 15.3406 7.55187 15.4985L17.0014 24.948C17.3174 25.264 17.3174 25.7781 17.0014 26.0942ZM27.7379 6.51077L26.862 7.71699L24.783 5.63801L25.9892 4.76207C26.074 4.7005 26.1892 4.70963 26.2632 4.78363L27.7164 6.23681C27.7904 6.31081 27.7995 6.42607 27.7379 6.51077Z" fill="black"/>
</g>
<defs>
<clipPath id="clip0_418_434">
<rect width="32" height="32" fill="white" transform="translate(0 0.5)"/>
</clipPath>
</defs>
</svg>
