<svg width="32" height="33" viewBox="0 0 32 33" fill="none" xmlns="http://www.w3.org/2000/svg">
<g clip-path="url(#clip0_418_511)">
<path d="M13.1333 11.9252C13.1333 13.7345 11.6666 15.2011 9.85735 15.2011H3.74565C1.93639 15.2011 0.469727 13.7345 0.469727 11.9252V4.24468C0.469727 2.43541 1.93639 0.96875 3.74565 0.96875H9.85728C11.6665 0.96875 13.1332 2.43541 13.1332 4.24468L13.1333 11.9252Z" fill="#BED8FB"/>
<path d="M9.93299 0.969482C10.3719 1.52682 10.6338 2.23016 10.6338 2.99467V10.6752C10.6338 12.4845 9.16704 13.9511 7.35784 13.9511C7.35784 13.9511 1.19596 13.9508 1.1709 13.9503C1.77074 14.712 2.70131 15.2011 3.74605 15.2011H9.85769C11.667 15.2011 13.1336 13.7344 13.1336 11.9251V4.24453C13.1337 2.46045 11.7074 1.00948 9.93299 0.969482Z" fill="#9DC6FB"/>
<path d="M3.7453 13.0844C3.10603 13.0844 2.58594 12.5643 2.58594 11.925V4.24457C2.58594 3.6053 3.10603 3.08521 3.7453 3.08521H9.85694C10.4962 3.08521 11.0163 3.6053 11.0163 4.24457V11.925C11.0163 12.5643 10.4962 13.0844 9.85694 13.0844H3.7453Z" fill="#617881"/>
<path d="M9.85694 3.08521H8.51645V10.6751C8.51645 11.3144 7.99636 11.8345 7.35709 11.8345H2.58594V11.925C2.58594 12.5643 3.10603 13.0844 3.7453 13.0844H9.85694C10.4962 13.0844 11.0163 12.5643 11.0163 11.925V4.24457C11.0163 3.6053 10.4962 3.08521 9.85694 3.08521Z" fill="#475959"/>
<path d="M23.3849 2.84157C23.3849 1.80726 22.5464 0.96875 21.5121 0.96875H9.85742C11.6667 0.96875 13.1333 2.43541 13.1333 4.24468V11.9251C13.1333 13.5189 11.9953 14.8467 10.4875 15.1405L21.8384 13.0804C22.733 12.9221 23.3849 12.1446 23.3849 11.2363V2.84157H23.3849Z" fill="#F1F4F6"/>
<path d="M10.2142 29.9057V29.9128H4.42686C3.85346 29.9128 3.38867 29.448 3.38867 28.8746V30.9911C3.38867 31.5645 3.85346 32.0293 4.42686 32.0293H10.2142V32.0223C10.7302 31.962 11.1306 31.5234 11.1306 30.9911V28.8745C11.1306 29.4067 10.7302 29.8454 10.2142 29.9057Z" fill="#BED8FB"/>
<path d="M10.2142 29.9056V29.9127H8.61673C8.54149 30.3651 8.17376 30.7186 7.71435 30.7723V30.7793H3.38867V30.9911C3.38867 31.5644 3.85346 32.0293 4.42686 32.0293H10.2142V32.0222C10.7302 31.9619 11.1306 31.5233 11.1306 30.9911V28.8745C11.1306 29.4067 10.7302 29.8453 10.2142 29.9056Z" fill="#9DC6FB"/>
<path d="M25.5087 2.83395C25.5045 1.80264 24.6672 0.96875 23.6359 0.96875H21.5117C22.546 0.96875 23.3845 1.80726 23.3845 2.84157V11.2363C23.3845 12.1446 22.7326 12.9221 21.8381 13.0804L24.0019 12.695C24.896 12.5332 25.5449 11.753 25.5412 10.8445L25.5087 2.83395Z" fill="#BED8FB"/>
<path d="M25.5087 2.83395C25.5045 1.80264 24.6672 0.96875 23.6359 0.96875H21.5117C22.546 0.96875 23.3845 1.80726 23.3845 2.84157V11.2363C23.3845 12.1446 22.7326 12.9221 21.8381 13.0804L24.0019 12.695C24.896 12.5332 25.5449 11.753 25.5412 10.8445L25.5087 2.83395Z" fill="#9DC6FB"/>
<path d="M9.93273 0.969625C9.93248 0.969312 9.9323 0.969062 9.93205 0.96875H9.85742C9.88261 0.96875 9.90773 0.969062 9.93273 0.969625Z" fill="#DFEAEF"/>
<path d="M21.5119 0.96875H20.7787C20.8474 1.16361 20.8848 1.37329 20.8848 1.59165V9.98633C20.8848 10.8947 20.2329 11.6722 19.3384 11.8305L12.9572 12.9871C12.5822 14.082 11.6434 14.9153 10.4873 15.1406L21.8382 13.0805C22.7328 12.9222 23.3846 12.1447 23.3846 11.2363V2.84157C23.3847 1.80726 22.5462 0.96875 21.5119 0.96875Z" fill="#DFEAEF"/>
<path d="M10.4874 15.1405C10.2835 15.1803 10.0728 15.2011 9.85728 15.2011H3.74565C4.153 17.4378 4.1805 19.7272 3.8269 21.973L3.7424 22.5096C3.50691 24.0052 3.38867 25.517 3.38867 27.031V28.8746C3.38867 29.4479 3.85346 29.9128 4.42686 29.9128H10.2142V29.9057C10.7302 29.8454 11.1306 29.4068 11.1306 28.8746V27.0312C11.1306 25.5171 11.0124 24.0053 10.7769 22.5096L10.6894 21.9539C10.4376 20.3493 10.778 18.7004 11.679 17.349C12.5657 16.0192 13.8145 14.9412 15.3024 14.2651L10.4874 15.1405Z" fill="#F1F4F6"/>
<path d="M10.4877 15.1405C10.2867 15.1796 10.0791 15.2003 9.86677 15.201C9.6186 15.4849 9.38899 15.7849 9.17963 16.099C8.27862 17.4503 7.93814 19.0993 8.19 20.7039L8.27749 21.2596C8.51298 22.7552 8.63122 24.267 8.63122 25.7811V29.7411C8.63122 29.7996 8.62641 29.8569 8.6171 29.9127H10.2146V29.9056C10.7306 29.8454 11.131 29.4067 11.131 28.8745V27.0311C11.131 25.517 11.0128 24.0052 10.7773 22.5096L10.6898 21.9539C10.438 20.3493 10.7784 18.7002 11.6794 17.349C12.5661 16.0191 13.8149 14.9412 15.3028 14.2651L10.4877 15.1405Z" fill="#DFEAEF"/>
<path d="M30.7492 7.47574H28.1787C27.7473 7.47574 27.3975 7.12594 27.3975 6.69453C27.3975 6.26312 27.7473 5.91333 28.1787 5.91333H30.7492C31.1807 5.91333 31.5304 6.26312 31.5304 6.69453C31.5304 7.12594 31.1806 7.47574 30.7492 7.47574Z" fill="#EAAA89"/>
<path d="M27.8583 4.3488C27.6584 4.3488 27.4585 4.27256 27.3059 4.12C27.0009 3.8149 27.0009 3.3203 27.3059 3.0152L29.1236 1.19756C29.4286 0.892512 29.9233 0.89245 30.2284 1.19756C30.5335 1.50266 30.5334 1.99726 30.2284 2.30236L28.4107 4.12C28.2582 4.2725 28.0583 4.3488 27.8583 4.3488Z" fill="#EAAA89"/>
<path d="M27.8583 9.04028C27.6584 9.04028 27.4585 9.11653 27.3059 9.26908C27.0009 9.57419 27.0009 10.0688 27.3059 10.3739L29.1236 12.1915C29.4286 12.4966 29.9233 12.4966 30.2284 12.1915C30.5335 11.8864 30.5334 11.3918 30.2284 11.0867L28.4107 9.26908C28.2582 9.11659 28.0583 9.04028 27.8583 9.04028Z" fill="#EAAA89"/>
<path d="M12.5223 19.2129C12.3199 18.7174 12.2158 18.1873 12.2158 17.6521V16.6272C12.0245 16.8582 11.8452 17.0991 11.6787 17.3489C10.9187 18.4886 10.5575 19.8401 10.6142 21.1981H11.822C12.5434 21.1981 13.0346 20.4668 12.7618 19.7991L12.5223 19.2129Z" fill="#BED8FB"/>
<path d="M30.7492 5.44458H28.1786C27.4894 5.44458 26.9287 6.0053 26.9287 6.6945C26.9287 7.38371 27.4894 7.94443 28.1786 7.94443H30.7492C31.4384 7.94443 31.9991 7.38371 31.9991 6.6945C31.9991 6.0053 31.4383 5.44458 30.7492 5.44458ZM30.7492 7.00699H28.1786C28.0063 7.00699 27.8662 6.86681 27.8662 6.6945C27.8662 6.5222 28.0063 6.38202 28.1786 6.38202H30.7492C30.9215 6.38202 31.0616 6.5222 31.0616 6.6945C31.0616 6.86681 30.9214 7.00699 30.7492 7.00699Z" fill="black"/>
<path d="M30.5593 12.5229C31.0466 12.0356 31.0466 11.2427 30.5593 10.7553L28.7416 8.93766C28.2531 8.44919 27.4623 8.44912 26.9739 8.93772C26.4866 9.42507 26.4866 10.218 26.9739 10.7054L28.7915 12.523C29.279 13.0102 30.0719 13.0103 30.5593 12.5229ZM27.8577 9.509C28.087 9.509 28.0088 9.57499 29.8964 11.4181C30.0182 11.54 30.0182 11.7382 29.8964 11.8601C29.7746 11.982 29.5763 11.9818 29.4545 11.86L27.6368 10.0425C27.4412 9.84685 27.5801 9.509 27.8577 9.509Z" fill="black"/>
<path d="M28.7925 0.865943L26.9748 2.68358C26.4876 3.17099 26.4876 3.96388 26.9748 4.45123C27.4632 4.93982 28.2541 4.93976 28.7425 4.45129L30.5602 2.63365C31.0475 2.14624 31.0475 1.35335 30.5602 0.866005C30.0728 0.378597 29.2798 0.378722 28.7925 0.865943ZM27.6377 3.34648L29.4553 1.5289C29.5771 1.4071 29.7754 1.40697 29.8972 1.52884C30.0191 1.65071 30.0191 1.84895 29.8972 1.97081C28.0097 3.81389 28.0879 3.87995 27.8586 3.87995C27.5809 3.87995 27.4421 3.54209 27.6377 3.34648Z" fill="black"/>
<path d="M3.34727 15.6488C3.95174 19.3561 3.31034 22.0778 3.2794 22.4368C3.10373 23.5523 2.99123 24.6901 2.94486 25.8185C2.93424 26.0771 3.13529 26.2954 3.39396 26.3061C3.65926 26.316 3.87112 26.11 3.88149 25.8569C3.96661 23.7858 4.24516 22.3806 4.2899 22.0459C4.62345 19.9272 4.62651 17.785 4.29978 15.6699C10.0367 15.6481 9.95287 15.72 10.5629 15.6032C10.7695 15.5693 9.74007 15.7528 13.0175 15.157C12.3567 15.7122 11.7741 16.3616 11.2892 17.089C9.54796 19.7004 10.3149 22.3516 10.314 22.5825C10.7876 25.5915 10.6326 27.6625 10.662 28.8746C10.662 29.1636 10.4461 29.4067 10.1599 29.4402C10.1508 29.4412 10.1419 29.4426 10.133 29.4441H4.42683C4.11285 29.4441 3.85737 29.1886 3.85737 28.8747V28.0436C3.85737 27.7847 3.64751 27.5749 3.38865 27.5749C3.12979 27.5749 2.91992 27.7847 2.91992 28.0436V30.9913C2.91992 31.8222 3.59588 32.4981 4.42683 32.4981C10.5307 32.4892 10.2263 32.5201 10.364 32.4736C11.0747 32.3445 11.5993 31.7234 11.5993 30.9912V28.8746C11.5698 27.6732 11.7267 25.529 11.2399 22.4367C11.1631 21.9424 11.1446 21.8471 11.1226 21.667H11.8224C12.8746 21.667 13.5952 20.599 13.1961 19.6218C13.0574 19.2166 12.685 18.6345 12.685 17.6522V16.7984C13.445 15.9171 14.3839 15.2065 15.4443 14.7158C21.0223 13.705 22.4868 13.4373 24.0855 13.1562C25.2053 12.9536 26.0147 11.9805 26.0101 10.8426L26.003 9.09985C26.002 8.84162 25.7923 8.63301 25.5343 8.63301C25.2748 8.63301 25.0645 8.84393 25.0656 9.1036L25.0726 10.8463C25.0754 11.5287 24.59 12.1122 23.9198 12.2334L23.604 12.2897C24.0433 11.417 23.7695 11.4275 23.8534 2.84148C23.8534 2.31514 23.6789 1.82886 23.3846 1.43738H23.636C24.4071 1.43738 25.037 2.06472 25.0401 2.83686L25.0655 6.9173C25.0671 7.17516 25.2767 7.38308 25.5342 7.38308C25.794 7.38308 26.0046 7.17166 26.003 6.91142L25.9775 2.83205C25.9723 1.54612 24.922 0.5 23.6361 0.5C22.4527 0.5 4.92299 0.5 3.74562 0.5C1.68081 0.5 0.000976562 2.17984 0.000976562 4.24465V11.9252C0.000976562 13.8554 1.46901 15.4493 3.34727 15.6488ZM10.1599 31.5567C10.1508 31.5578 10.1419 31.5591 10.133 31.5607H4.42683C4.11285 31.5607 3.85737 31.3053 3.85737 30.9913V30.2699C4.34053 30.4678 4.20585 30.343 10.2142 30.3816C10.3106 30.3816 10.5388 30.3206 10.6619 30.2705V30.9913C10.6619 31.2801 10.4461 31.5232 10.1599 31.5567ZM11.8224 20.7295H11.0797C11.1076 19.8095 11.3424 18.9146 11.7701 18.1097C11.8606 19.0208 12.1776 19.5581 12.3283 19.9763C12.3983 20.1477 12.2127 20.7295 11.8224 20.7295ZM21.5119 1.43744C22.2861 1.43744 22.916 2.06728 22.916 2.84155V11.2362C22.916 11.9166 22.4311 12.4966 21.7622 12.6178C21.7622 12.6178 21.755 12.6191 21.7543 12.6192C10.2207 14.71 16.36 13.5963 12.7951 14.2446C13.3001 13.6063 13.6019 12.8003 13.6019 11.9251V4.24465C13.6019 3.12809 13.1107 2.12409 12.333 1.43744H21.5119ZM0.93842 4.24465C0.93842 2.69674 2.19772 1.43744 3.74562 1.43744H9.85725C11.4052 1.43744 12.6645 2.69674 12.6645 4.24465V11.9252C12.6645 13.4732 11.4052 14.7325 9.85725 14.7325C2.74675 14.7324 3.86381 14.7316 3.74256 14.7325C2.19603 14.7308 0.938357 13.4722 0.938357 11.9252L0.93842 4.24465Z" fill="black"/>
<path d="M3.74528 13.5531H9.85691C10.7546 13.5531 11.485 12.8227 11.485 11.925V4.24454C11.485 3.34685 10.7546 2.61646 9.85691 2.61646H3.74528C2.84758 2.61646 2.11719 3.34685 2.11719 4.24454V5.44447C2.11719 5.70339 2.32705 5.91319 2.58591 5.91319C2.84477 5.91319 3.05463 5.70339 3.05463 5.44447V4.24454C3.05463 3.86369 3.36449 3.5539 3.74528 3.5539H9.85691C10.2377 3.5539 10.5476 3.86369 10.5476 4.24454V11.9251C10.5476 12.3059 10.2377 12.6157 9.85691 12.6157H3.74528C3.36449 12.6157 3.05463 12.3059 3.05463 11.9251V7.50691C3.05463 7.24799 2.84477 7.03819 2.58591 7.03819C2.32705 7.03819 2.11719 7.24799 2.11719 7.50691V11.9251C2.11719 12.8228 2.84758 13.5531 3.74528 13.5531Z" fill="black"/>
<path d="M5.10515 4.19189C4.41444 4.19189 3.85254 4.7538 3.85254 5.44451C3.85254 6.13521 4.41444 6.69712 5.10515 6.69712C5.7958 6.69712 6.3577 6.13521 6.3577 5.44451C6.3577 4.7538 5.7958 4.19189 5.10515 4.19189ZM5.10515 5.75967C4.93135 5.75967 4.78998 5.61825 4.78998 5.44451C4.78998 5.27077 4.93135 5.12934 5.10515 5.12934C5.27889 5.12934 5.42026 5.27077 5.42026 5.44451C5.42026 5.61825 5.27889 5.75967 5.10515 5.75967Z" fill="black"/>
<path d="M7.81873 7.16327C8.36713 7.16327 8.81329 7.60943 8.81329 8.15778C8.81329 8.4167 9.02315 8.6265 9.28201 8.6265C9.54087 8.6265 9.75074 8.4167 9.75074 8.15778C9.75074 7.09247 8.88404 6.22583 7.81873 6.22583C6.75342 6.22583 5.88672 7.09247 5.88672 8.15778V10.0459C5.88672 11.1112 6.75342 11.9779 7.81873 11.9779C8.88404 11.9779 9.75074 11.1112 9.75074 10.0459C9.75074 9.78699 9.54087 9.57719 9.28201 9.57719C9.02315 9.57719 8.81329 9.78699 8.81329 10.0459C8.81329 10.5943 8.36713 11.0404 7.81873 11.0404C7.27032 11.0404 6.82416 10.5943 6.82416 10.0459V8.15778C6.82422 7.60943 7.27039 7.16327 7.81873 7.16327Z" fill="black"/>
<path d="M15.2119 4.05024H20.3261C20.585 4.05024 20.7949 3.84044 20.7949 3.58151C20.7949 3.32259 20.585 3.11279 20.3261 3.11279H15.2119C14.953 3.11279 14.7432 3.32259 14.7432 3.58151C14.7432 3.84044 14.953 4.05024 15.2119 4.05024Z" fill="black"/>
<path d="M15.2119 6.13471H17.3528C17.6116 6.13471 17.8215 5.92491 17.8215 5.66599C17.8215 5.40707 17.6116 5.19727 17.3528 5.19727H15.2119C14.953 5.19727 14.7432 5.40707 14.7432 5.66599C14.7432 5.92491 14.953 6.13471 15.2119 6.13471Z" fill="black"/>
</g>
<defs>
<clipPath id="clip0_418_511">
<rect width="32" height="32" fill="white" transform="translate(0 0.5)"/>
</clipPath>
</defs>
</svg>
